<svg width="226" height="56" viewBox="0 0 226 56" fill="none" xmlns="http://www.w3.org/2000/svg">
<rect x="1" y="0.5" width="224" height="55" stroke="#3040D3"/>
<path d="M41.8906 33.3906H29.4219L27.4531 37H25.1562L34.3438 21.25H36.9688L46.1562 37H43.8594L41.8906 33.3906ZM40.9062 31.75L35.6562 22.5625L30.4062 31.75H40.9062ZM59.9375 37V30.4375C59.9375 29.7061 59.8828 29.0908 59.7734 28.5918C59.6641 28.0859 59.4453 27.6792 59.1172 27.3716C58.7891 27.064 58.3242 26.8418 57.7227 26.7051C57.1211 26.5684 56.3281 26.5 55.3438 26.5C54.2773 26.5 53.4023 26.5786 52.7188 26.7358C52.042 26.8931 51.5088 27.1152 51.1191 27.4023C50.7295 27.6895 50.4595 28.0347 50.3091 28.438C50.1655 28.8413 50.0938 29.2891 50.0938 29.7812V37H48.125V25.1875H50.0938V27.1562C50.2373 26.8213 50.4424 26.5342 50.709 26.2949C50.9756 26.0488 51.2764 25.8403 51.6113 25.6694C51.9463 25.4985 52.3086 25.3618 52.6982 25.2593C53.0879 25.1499 53.4775 25.0679 53.8672 25.0132C54.2568 24.9517 54.6328 24.9106 54.9951 24.8901C55.3643 24.8696 55.6992 24.8594 56 24.8594C56.875 24.8594 57.627 24.9141 58.2559 25.0234C58.8916 25.1328 59.4282 25.2935 59.8657 25.5054C60.3101 25.7173 60.6655 25.9805 60.9321 26.2949C61.1987 26.6094 61.4038 26.9751 61.5474 27.3921C61.6978 27.8022 61.7969 28.2637 61.8447 28.7764C61.8926 29.2822 61.9165 29.8359 61.9165 30.4375L61.9062 37H59.9375ZM76.3643 37V30.4375C76.3643 29.7061 76.3096 29.0908 76.2002 28.5918C76.0908 28.0859 75.8721 27.6792 75.5439 27.3716C75.2158 27.064 74.751 26.8418 74.1494 26.7051C73.5479 26.5684 72.7549 26.5 71.7705 26.5C70.7041 26.5 69.8291 26.5786 69.1455 26.7358C68.4688 26.8931 67.9355 27.1152 67.5459 27.4023C67.1562 27.6895 66.8862 28.0347 66.7358 28.438C66.5923 28.8413 66.5205 29.2891 66.5205 29.7812V37H64.5518V25.1875H66.5205V27.1562C66.6641 26.8213 66.8691 26.5342 67.1357 26.2949C67.4023 26.0488 67.7031 25.8403 68.0381 25.6694C68.373 25.4985 68.7354 25.3618 69.125 25.2593C69.5146 25.1499 69.9043 25.0679 70.2939 25.0132C70.6836 24.9517 71.0596 24.9106 71.4219 24.8901C71.791 24.8696 72.126 24.8594 72.4268 24.8594C73.3018 24.8594 74.0537 24.9141 74.6826 25.0234C75.3184 25.1328 75.855 25.2935 76.2925 25.5054C76.7368 25.7173 77.0923 25.9805 77.3589 26.2949C77.6255 26.6094 77.8306 26.9751 77.9741 27.3921C78.1245 27.8022 78.2236 28.2637 78.2715 28.7764C78.3193 29.2822 78.3433 29.8359 78.3433 30.4375L78.333 37H76.3643ZM82.9575 25.1875V31.75C82.9575 32.4814 83.0122 33.1001 83.1216 33.606C83.231 34.105 83.4497 34.5083 83.7778 34.8159C84.106 35.1235 84.5708 35.3457 85.1724 35.4824C85.7739 35.6191 86.5669 35.6875 87.5513 35.6875C88.6177 35.6875 89.4893 35.6089 90.166 35.4517C90.8496 35.2944 91.3862 35.0723 91.7759 34.7852C92.1655 34.498 92.4321 34.1528 92.5757 33.7495C92.7261 33.3462 92.8013 32.8984 92.8013 32.4062V25.1875H94.77V37H92.8013V35.0312C92.7056 35.2432 92.5449 35.479 92.3193 35.7388C92.0938 35.9917 91.7554 36.2275 91.3042 36.4463C90.853 36.665 90.2686 36.8496 89.5508 37C88.8398 37.1504 87.9546 37.2256 86.895 37.2256C86.0132 37.2256 85.2544 37.1709 84.6187 37.0615C83.9897 36.959 83.4531 36.8052 83.0088 36.6001C82.5713 36.3882 82.2192 36.1284 81.9526 35.8208C81.686 35.5132 81.481 35.1577 81.3374 34.7544C81.1938 34.3442 81.0981 33.8896 81.0503 33.3906C81.0024 32.8916 80.9785 32.3447 80.9785 31.75L80.9888 25.1875H82.9575ZM109.167 35.3799C109.146 35.4619 108.992 35.667 108.705 35.9951C108.5 36.2412 108.227 36.46 107.885 36.6514C107.543 36.8359 107.085 36.9795 106.511 37.082C105.943 37.1914 105.195 37.2461 104.265 37.2461C103.028 37.2461 101.972 37.1812 101.097 37.0513C100.222 36.9282 99.5073 36.7368 98.9536 36.4771C98.3999 36.2104 97.9932 35.8721 97.7334 35.4619C97.4805 35.0518 97.354 34.563 97.354 33.9956C97.354 33.4009 97.4224 32.8984 97.5591 32.4883C97.7026 32.0713 97.9077 31.7227 98.1743 31.4424C98.4478 31.1621 98.7759 30.9434 99.1587 30.7861C99.5415 30.6289 99.9756 30.5093 100.461 30.4272C100.953 30.3452 101.49 30.2939 102.071 30.2734C102.652 30.2529 103.271 30.2427 103.927 30.2427C104.863 30.2427 105.646 30.2837 106.275 30.3657C106.904 30.4409 107.417 30.54 107.813 30.6631C108.216 30.7793 108.521 30.9058 108.726 31.0425C108.931 31.1792 109.078 31.3057 109.167 31.4219C109.167 30.6562 109.132 30.0034 109.064 29.4634C109.002 28.9233 108.896 28.4722 108.746 28.1099C108.603 27.7476 108.415 27.4604 108.182 27.2485C107.95 27.0298 107.663 26.8657 107.321 26.7563C106.986 26.647 106.593 26.5786 106.142 26.5513C105.69 26.5171 105.174 26.5 104.593 26.5C103.691 26.5 102.942 26.5239 102.348 26.5718C101.753 26.6128 101.281 26.6982 100.933 26.8281C100.584 26.958 100.338 27.1392 100.194 27.3716C100.051 27.5972 99.979 27.8945 99.979 28.2637H98.0103C98.0103 27.6416 98.1196 27.1152 98.3384 26.6846C98.564 26.2539 98.9331 25.9053 99.4458 25.6387C99.9653 25.3652 100.646 25.167 101.486 25.0439C102.327 24.9209 103.363 24.8594 104.593 24.8594C105.796 24.8594 106.815 24.9585 107.649 25.1567C108.483 25.355 109.156 25.7036 109.669 26.2026C110.188 26.7017 110.561 27.375 110.787 28.2227C111.019 29.0635 111.135 30.1299 111.135 31.4219V37H109.167V35.3799ZM104.593 35.6875C105.461 35.6875 106.186 35.6465 106.767 35.5645C107.355 35.4824 107.827 35.3594 108.182 35.1953C108.538 35.0312 108.791 34.8262 108.941 34.5801C109.091 34.334 109.167 34.0469 109.167 33.7188C109.167 33.3906 109.078 33.1138 108.9 32.8882C108.729 32.6558 108.438 32.4678 108.028 32.3242C107.625 32.1807 107.088 32.0781 106.418 32.0166C105.749 31.9482 104.921 31.9141 103.937 31.9141C102.953 31.9141 102.156 31.9312 101.548 31.9653C100.946 31.9995 100.481 32.0781 100.153 32.2012C99.8252 32.3242 99.603 32.5054 99.4868 32.7446C99.3774 32.9839 99.3228 33.3086 99.3228 33.7188C99.3228 34.1289 99.3809 34.4639 99.4971 34.7236C99.6201 34.9766 99.8662 35.1748 100.235 35.3184C100.604 35.4619 101.134 35.561 101.825 35.6157C102.522 35.6636 103.445 35.6875 104.593 35.6875ZM114.427 21.25H116.396V37H114.427V21.25ZM124.927 37V21.25H138.062C139.046 21.25 139.839 21.332 140.441 21.4961C141.042 21.6533 141.504 21.8892 141.825 22.2036C142.153 22.5112 142.372 22.8975 142.481 23.3623C142.591 23.8271 142.646 24.3604 142.646 24.9619C142.646 25.3994 142.608 25.7856 142.533 26.1206C142.458 26.4556 142.358 26.7461 142.235 26.9922C142.112 27.2383 141.972 27.4468 141.815 27.6177C141.658 27.7817 141.497 27.9185 141.333 28.0278C140.95 28.2876 140.513 28.4346 140.021 28.4688C140.636 28.5029 141.183 28.6533 141.661 28.9199C141.866 29.0361 142.064 29.1831 142.256 29.3608C142.454 29.5317 142.628 29.7471 142.779 30.0068C142.936 30.2598 143.062 30.5605 143.158 30.9092C143.254 31.251 143.302 31.6475 143.302 32.0986C143.302 32.6455 143.274 33.1479 143.22 33.606C143.172 34.0571 143.069 34.4639 142.912 34.8262C142.755 35.1885 142.529 35.5063 142.235 35.7798C141.941 36.0532 141.548 36.2822 141.056 36.4668C140.571 36.6445 139.973 36.7778 139.262 36.8667C138.558 36.9556 137.713 37 136.729 37H124.927ZM136.073 35.3594C136.838 35.3594 137.501 35.3491 138.062 35.3286C138.623 35.3013 139.098 35.25 139.487 35.1748C139.877 35.0928 140.191 34.98 140.431 34.8364C140.67 34.686 140.854 34.4912 140.984 34.252C141.121 34.0059 141.213 33.7085 141.261 33.3599C141.309 33.0112 141.333 32.5908 141.333 32.0986C141.333 31.7158 141.309 31.3843 141.261 31.104C141.213 30.8169 141.121 30.5776 140.984 30.3862C140.854 30.188 140.67 30.0308 140.431 29.9146C140.191 29.7915 139.877 29.6958 139.487 29.6274C139.098 29.5591 138.623 29.5146 138.062 29.4941C137.501 29.4668 136.838 29.4531 136.073 29.4531H126.896V35.3594H136.073ZM136.073 27.8125C136.743 27.8125 137.32 27.7988 137.806 27.7715C138.291 27.7441 138.705 27.6929 139.046 27.6177C139.388 27.5425 139.665 27.4399 139.877 27.3101C140.089 27.1733 140.253 26.999 140.369 26.7871C140.492 26.5752 140.574 26.3223 140.615 26.0283C140.656 25.7275 140.677 25.3721 140.677 24.9619C140.677 24.5244 140.629 24.1689 140.533 23.8955C140.438 23.6221 140.267 23.4136 140.021 23.27C139.774 23.1196 139.439 23.0205 139.016 22.9727C138.599 22.918 138.062 22.8906 137.406 22.8906H126.896V27.8125H136.073ZM146.583 25.1875H148.552V37H146.583V25.1875ZM148.552 23.2188H146.583V21.25H148.552V23.2188ZM152.489 21.25H154.458V37H152.489V21.25ZM158.396 21.25H160.364V37H158.396V21.25ZM164.302 25.1875H166.271V37H164.302V25.1875ZM166.271 23.2188H164.302V21.25H166.271V23.2188ZM181.364 37V30.4375C181.364 29.7061 181.31 29.0908 181.2 28.5918C181.091 28.0859 180.872 27.6792 180.544 27.3716C180.216 27.064 179.751 26.8418 179.149 26.7051C178.548 26.5684 177.755 26.5 176.771 26.5C175.704 26.5 174.829 26.5786 174.146 26.7358C173.469 26.8931 172.936 27.1152 172.546 27.4023C172.156 27.6895 171.886 28.0347 171.736 28.438C171.592 28.8413 171.521 29.2891 171.521 29.7812V37H169.552V25.1875H171.521V27.1562C171.664 26.8213 171.869 26.5342 172.136 26.2949C172.402 26.0488 172.703 25.8403 173.038 25.6694C173.373 25.4985 173.735 25.3618 174.125 25.2593C174.515 25.1499 174.904 25.0679 175.294 25.0132C175.684 24.9517 176.06 24.9106 176.422 24.8901C176.791 24.8696 177.126 24.8594 177.427 24.8594C178.302 24.8594 179.054 24.9141 179.683 25.0234C180.318 25.1328 180.855 25.2935 181.292 25.5054C181.737 25.7173 182.092 25.9805 182.359 26.2949C182.625 26.6094 182.831 26.9751 182.974 27.3921C183.125 27.8022 183.224 28.2637 183.271 28.7764C183.319 29.2822 183.343 29.8359 183.343 30.4375L183.333 37H181.364ZM192.869 26.5C192.104 26.5 191.44 26.5239 190.88 26.5718C190.326 26.6196 189.854 26.7051 189.465 26.8281C189.075 26.9512 188.757 27.1221 188.511 27.3408C188.272 27.5596 188.084 27.8398 187.947 28.1816C187.817 28.5234 187.729 28.937 187.681 29.4224C187.64 29.9009 187.619 30.4648 187.619 31.1143C187.619 31.7568 187.64 32.3174 187.681 32.7959C187.729 33.2676 187.817 33.6743 187.947 34.0161C188.084 34.3511 188.272 34.6279 188.511 34.8467C188.757 35.0654 189.075 35.2363 189.465 35.3594C189.854 35.4824 190.326 35.5679 190.88 35.6157C191.44 35.6636 192.104 35.6875 192.869 35.6875C193.525 35.6875 194.11 35.6738 194.623 35.6465C195.135 35.6123 195.586 35.5439 195.976 35.4414C196.366 35.332 196.694 35.1782 196.96 34.98C197.234 34.7749 197.456 34.5049 197.627 34.1699C197.798 33.8281 197.921 33.4077 197.996 32.9087C198.078 32.4028 198.119 31.7944 198.119 31.0835C198.119 30.3726 198.078 29.7642 197.996 29.2583C197.921 28.7524 197.798 28.332 197.627 27.9971C197.456 27.6553 197.234 27.3853 196.96 27.187C196.694 26.9888 196.366 26.8384 195.976 26.7358C195.586 26.6333 195.135 26.5684 194.623 26.541C194.11 26.5137 193.525 26.5 192.869 26.5ZM200.088 35.3594C200.088 36.5078 199.958 37.4614 199.698 38.2202C199.438 38.979 199.021 39.5908 198.447 40.0557C197.873 40.5273 197.128 40.8555 196.212 41.04C195.296 41.2246 194.182 41.3169 192.869 41.3169C191.639 41.3169 190.603 41.2622 189.762 41.1528C188.928 41.0435 188.255 40.8691 187.742 40.6299C187.229 40.3975 186.86 40.0933 186.635 39.7173C186.416 39.3481 186.307 38.897 186.307 38.3638H188.275C188.275 38.6304 188.344 38.8491 188.48 39.02C188.624 39.1909 188.87 39.3242 189.219 39.4199C189.567 39.5156 190.036 39.5806 190.624 39.6147C191.218 39.6558 191.967 39.6763 192.869 39.6763C193.854 39.6763 194.681 39.6387 195.351 39.5635C196.021 39.4951 196.561 39.3276 196.971 39.061C197.381 38.7944 197.675 38.3911 197.853 37.8511C198.03 37.311 198.119 36.5898 198.119 35.6875C198.023 35.8516 197.87 36.0293 197.658 36.2207C197.453 36.4121 197.148 36.5898 196.745 36.7539C196.349 36.918 195.836 37.0547 195.207 37.1641C194.578 37.2734 193.799 37.3281 192.869 37.3281C191.557 37.3281 190.442 37.229 189.526 37.0308C188.61 36.8394 187.865 36.5078 187.291 36.0361C186.717 35.5645 186.3 34.9287 186.04 34.1289C185.78 33.3291 185.65 32.3242 185.65 31.1143C185.65 29.8838 185.78 28.8652 186.04 28.0586C186.3 27.252 186.717 26.6128 187.291 26.1411C187.865 25.6694 188.61 25.3379 189.526 25.1465C190.442 24.9551 191.557 24.8594 192.869 24.8594C193.799 24.8594 194.578 24.9072 195.207 25.0029C195.836 25.0986 196.349 25.2183 196.745 25.3618C197.148 25.5054 197.453 25.6626 197.658 25.8335C197.87 25.9976 198.023 26.1479 198.119 26.2847V25.1875H200.088V35.3594Z" fill="black"/>
</svg>
