<svg width="187" height="64" viewBox="0 0 187 64" fill="none" xmlns="http://www.w3.org/2000/svg">
<g filter="url(#filter0_d_1_22)">
<path d="M12 48V8H174.5V35L161.5 48H12Z" fill="#3040D3"/>
</g>
<path d="M61.592 33V23.032H64.632C65.8267 23.032 66.712 23.2667 67.288 23.736C67.864 24.2053 68.152 24.808 68.152 25.544C68.152 25.9707 68.0293 26.392 67.784 26.808C67.5493 27.224 67.2027 27.5227 66.744 27.704C67.288 27.9387 67.72 28.2747 68.04 28.712C68.3707 29.1387 68.536 29.608 68.536 30.12C68.536 30.984 68.2107 31.6827 67.56 32.216C66.92 32.7387 65.9387 33 64.616 33H61.592ZM63.4 27.016H64.488C65.192 27.016 65.672 26.8987 65.928 26.664C66.1947 26.4187 66.328 26.0987 66.328 25.704C66.328 25.3413 66.1947 25.048 65.928 24.824C65.6613 24.6 65.2347 24.488 64.648 24.488H63.4V27.016ZM63.4 31.512H64.808C65.3733 31.512 65.8213 31.3893 66.152 31.144C66.4933 30.8987 66.664 30.5413 66.664 30.072C66.664 29.592 66.504 29.2027 66.184 28.904C65.8747 28.6053 65.3253 28.456 64.536 28.456H63.4V31.512ZM72.392 33.192C71.6347 33.192 71.0107 32.936 70.52 32.424C70.0293 31.912 69.784 31.08 69.784 29.928V25.56H71.608V29.928C71.608 30.5893 71.7147 31.0587 71.928 31.336C72.152 31.6027 72.4293 31.736 72.76 31.736C73.208 31.736 73.5707 31.576 73.848 31.256C74.136 30.936 74.28 30.4507 74.28 29.8V25.56H76.088V31.816C76.088 32.0507 76.0933 32.264 76.104 32.456C76.1253 32.6373 76.1733 32.8187 76.248 33H74.6C74.5147 32.84 74.4667 32.68 74.456 32.52C74.4453 32.36 74.44 32.2 74.44 32.04C74.216 32.424 73.9173 32.712 73.544 32.904C73.1813 33.096 72.7973 33.192 72.392 33.192ZM79.016 35.816C78.6533 35.816 78.3333 35.7573 78.056 35.64C77.7787 35.5227 77.5067 35.352 77.24 35.128L77.864 33.88L77.928 33.736L78.072 33.8C78.104 33.8853 78.1413 33.9653 78.184 34.04C78.2267 34.1147 78.3227 34.2 78.472 34.296C78.632 34.3813 78.8133 34.424 79.016 34.424C79.336 34.424 79.592 34.2907 79.784 34.024C79.9867 33.7573 80.1893 33.336 80.392 32.76L77.496 25.56H79.304L81.208 30.472L82.008 28.2C82.168 27.7413 82.3013 27.2987 82.408 26.872C82.5147 26.4453 82.584 26.008 82.616 25.56H84.296C84.2533 26.04 84.1413 26.5467 83.96 27.08C83.7787 27.6133 83.5973 28.12 83.416 28.6L81.576 33.656C81.2773 34.4453 80.9147 35 80.488 35.32C80.072 35.6507 79.5813 35.816 79.016 35.816ZM97.416 33.176C96.584 33.176 95.864 32.9627 95.256 32.536C94.6587 32.1093 94.2 31.512 93.88 30.744C93.56 29.976 93.4 29.08 93.4 28.056C93.4 27 93.5333 26.136 93.8 25.464C94.0773 24.7813 94.424 24.2533 94.84 23.88C95.2667 23.496 95.7093 23.2347 96.168 23.096C96.6267 22.9467 97.0373 22.872 97.4 22.872C98.0507 22.872 98.6587 23.0267 99.224 23.336C99.8 23.6347 100.237 24.0613 100.536 24.616L99.48 25.656L99.384 25.768L99.272 25.656C99.2613 25.5707 99.24 25.4907 99.208 25.416C99.1867 25.3307 99.1227 25.2187 99.016 25.08C98.8347 24.8667 98.6213 24.696 98.376 24.568C98.1413 24.44 97.832 24.376 97.448 24.376C97.0533 24.376 96.68 24.488 96.328 24.712C95.9867 24.936 95.7093 25.3093 95.496 25.832C95.2933 26.344 95.192 27.032 95.192 27.896C95.192 29.176 95.3947 30.1307 95.8 30.76C96.216 31.3893 96.7547 31.704 97.416 31.704C97.6827 31.704 97.944 31.672 98.2 31.608C98.4667 31.5333 98.712 31.4 98.936 31.208V29.368H97.288V27.864H100.568V32.136C100.088 32.52 99.5813 32.792 99.048 32.952C98.5147 33.1013 97.9707 33.176 97.416 33.176ZM104.168 33.192C103.347 33.192 102.707 33 102.248 32.616C101.8 32.232 101.576 31.7253 101.576 31.096C101.576 30.3067 101.928 29.656 102.632 29.144C103.347 28.6213 104.381 28.36 105.736 28.36C105.811 28.36 105.907 28.36 106.024 28.36C106.152 28.36 106.285 28.3653 106.424 28.376C106.349 27.7573 106.173 27.3413 105.896 27.128C105.619 26.904 105.245 26.792 104.776 26.792C104.435 26.792 104.115 26.8507 103.816 26.968C103.517 27.0747 103.219 27.2773 102.92 27.576L101.928 26.488C102.355 26.0933 102.819 25.8107 103.32 25.64C103.821 25.4693 104.333 25.384 104.856 25.384C105.475 25.384 106.04 25.4853 106.552 25.688C107.064 25.88 107.469 26.2213 107.768 26.712C108.067 27.192 108.216 27.8587 108.216 28.712V33H106.344V32.2C106.067 32.5733 105.747 32.8347 105.384 32.984C105.021 33.1227 104.616 33.192 104.168 33.192ZM103.384 30.872C103.384 31.2133 103.491 31.4533 103.704 31.592C103.928 31.72 104.2 31.784 104.52 31.784C105.096 31.784 105.544 31.6133 105.864 31.272C106.184 30.92 106.376 30.3707 106.44 29.624C106.301 29.624 106.168 29.624 106.04 29.624C105.912 29.6133 105.8 29.608 105.704 29.608C104.851 29.608 104.248 29.7253 103.896 29.96C103.555 30.1947 103.384 30.4987 103.384 30.872ZM109.48 33V25.56H111V26.104C111.181 25.848 111.384 25.6667 111.608 25.56C111.832 25.4427 112.061 25.384 112.296 25.384C112.563 25.384 112.808 25.4533 113.032 25.592C113.267 25.7307 113.443 25.96 113.56 26.28C113.891 25.6827 114.413 25.384 115.128 25.384C115.672 25.384 116.061 25.576 116.296 25.96C116.541 26.3333 116.659 26.8507 116.648 27.512V33H115.08V27.896C115.08 27.416 115.043 27.096 114.968 26.936C114.893 26.7653 114.781 26.68 114.632 26.68C114.419 26.68 114.227 26.824 114.056 27.112C113.885 27.3893 113.8 27.7627 113.8 28.232V33H112.328V27.944C112.328 27.432 112.291 27.0907 112.216 26.92C112.141 26.7493 112.003 26.664 111.8 26.664C111.608 26.664 111.432 26.792 111.272 27.048C111.123 27.2933 111.048 27.656 111.048 28.136V33H109.48ZM121.336 33.176C120.621 33.176 119.981 33.0267 119.416 32.728C118.861 32.4293 118.424 31.992 118.104 31.416C117.784 30.84 117.624 30.1467 117.624 29.336C117.624 28.504 117.779 27.7947 118.088 27.208C118.408 26.6213 118.829 26.1733 119.352 25.864C119.885 25.544 120.477 25.384 121.128 25.384C121.704 25.384 122.232 25.5173 122.712 25.784C123.203 26.0507 123.592 26.456 123.88 27C124.179 27.5333 124.328 28.2 124.328 29C124.328 29.1067 124.323 29.2347 124.312 29.384C124.312 29.5333 124.307 29.6613 124.296 29.768H119.368C119.389 30.2373 119.501 30.6213 119.704 30.92C119.907 31.208 120.157 31.4213 120.456 31.56C120.755 31.6987 121.075 31.768 121.416 31.768C121.747 31.768 122.061 31.7147 122.36 31.608C122.659 31.5013 122.936 31.32 123.192 31.064L124.12 31.96C123.757 32.3867 123.341 32.696 122.872 32.888C122.403 33.08 121.891 33.176 121.336 33.176ZM119.4 28.408H122.568C122.568 27.8853 122.435 27.4853 122.168 27.208C121.901 26.9307 121.528 26.792 121.048 26.792C120.632 26.792 120.269 26.9253 119.96 27.192C119.651 27.448 119.464 27.8533 119.4 28.408Z" fill="white"/>
<defs>
<filter id="filter0_d_1_22" x="0" y="0" width="186.5" height="64" filterUnits="userSpaceOnUse" color-interpolation-filters="sRGB">
<feFlood flood-opacity="0" result="BackgroundImageFix"/>
<feColorMatrix in="SourceAlpha" type="matrix" values="0 0 0 0 0 0 0 0 0 0 0 0 0 0 0 0 0 0 127 0" result="hardAlpha"/>
<feOffset dy="4"/>
<feGaussianBlur stdDeviation="6"/>
<feComposite in2="hardAlpha" operator="out"/>
<feColorMatrix type="matrix" values="0 0 0 0 0 0 0 0 0 0 0 0 0 0 0 0 0 0 0.15 0"/>
<feBlend mode="normal" in2="BackgroundImageFix" result="effect1_dropShadow_1_22"/>
<feBlend mode="normal" in="SourceGraphic" in2="effect1_dropShadow_1_22" result="shape"/>
</filter>
</defs>
</svg>
