<svg width="226" height="72" viewBox="0 0 226 72" fill="none" xmlns="http://www.w3.org/2000/svg">
<g filter="url(#filter0_d_1_312)">
<path d="M12 56V8H214V40.4L197.84 56H12Z" fill="#3040D3"/>
</g>
<path d="M65.859 39.231C64.907 39.231 64.032 39 63.234 38.538C62.45 38.062 61.82 37.327 61.344 36.333C60.882 35.339 60.651 34.072 60.651 32.532C60.651 31.244 60.805 30.166 61.113 29.298C61.435 28.416 61.855 27.716 62.373 27.198C62.891 26.68 63.458 26.309 64.074 26.085C64.704 25.847 65.327 25.728 65.943 25.728C66.923 25.728 67.763 25.952 68.463 26.4C69.177 26.848 69.716 27.478 70.08 28.29L68.589 29.403L68.421 29.508L68.316 29.34C68.33 29.242 68.316 29.144 68.274 29.046C68.246 28.934 68.176 28.78 68.064 28.584C67.756 28.22 67.434 27.975 67.098 27.849C66.776 27.709 66.433 27.639 66.069 27.639C65.537 27.639 65.033 27.821 64.557 28.185C64.095 28.549 63.717 29.088 63.423 29.802C63.143 30.502 63.003 31.377 63.003 32.427C63.003 33.939 63.276 35.129 63.822 35.997C64.382 36.851 65.082 37.278 65.922 37.278C66.44 37.278 66.888 37.166 67.266 36.942C67.644 36.718 67.987 36.347 68.295 35.829L69.933 37.047C69.443 37.845 68.862 38.412 68.19 38.748C67.532 39.07 66.755 39.231 65.859 39.231ZM75.729 39.21C74.861 39.21 74.07 39 73.356 38.58C72.656 38.146 72.103 37.551 71.697 36.795C71.291 36.025 71.088 35.129 71.088 34.107C71.088 33.141 71.291 32.273 71.697 31.503C72.103 30.733 72.656 30.124 73.356 29.676C74.07 29.228 74.861 29.004 75.729 29.004C76.611 29.004 77.402 29.228 78.102 29.676C78.816 30.124 79.376 30.733 79.782 31.503C80.202 32.273 80.412 33.141 80.412 34.107C80.412 35.115 80.202 36.004 79.782 36.774C79.376 37.544 78.816 38.146 78.102 38.58C77.402 39 76.611 39.21 75.729 39.21ZM75.729 37.32C76.401 37.32 76.954 37.026 77.388 36.438C77.822 35.836 78.039 35.059 78.039 34.107C78.039 33.127 77.822 32.35 77.388 31.776C76.954 31.202 76.401 30.915 75.729 30.915C75.085 30.915 74.546 31.202 74.112 31.776C73.678 32.35 73.461 33.127 73.461 34.107C73.461 35.059 73.671 35.836 74.091 36.438C74.525 37.026 75.071 37.32 75.729 37.32ZM82.155 39V29.235H84.528V30.579C84.878 30.103 85.284 29.725 85.746 29.445C86.208 29.151 86.74 29.004 87.342 29.004C87.902 29.004 88.42 29.144 88.896 29.424C89.386 29.69 89.778 30.124 90.072 30.726C90.366 31.328 90.513 32.119 90.513 33.099V39H88.14V33.141C88.14 32.343 88.014 31.762 87.762 31.398C87.51 31.02 87.16 30.831 86.712 30.831C86.362 30.831 86.019 30.929 85.683 31.125C85.347 31.307 85.067 31.573 84.843 31.923C84.633 32.273 84.528 32.693 84.528 33.183V39H82.155ZM97.779 39.21C97.023 39.21 96.4 39.049 95.91 38.727C95.42 38.391 95.063 37.838 94.839 37.068C94.615 36.298 94.531 35.255 94.587 33.939L94.692 31.104H92.697L92.739 29.235H94.776L94.86 26.925L97.317 26.61L97.506 26.589L97.527 26.778C97.457 26.876 97.394 26.981 97.338 27.093C97.296 27.191 97.268 27.352 97.254 27.576L97.107 29.235H100.257L100.236 31.104H97.086L96.96 33.897C96.918 34.807 96.946 35.507 97.044 35.997C97.156 36.487 97.317 36.83 97.527 37.026C97.751 37.208 98.017 37.299 98.325 37.299C98.773 37.299 99.172 37.208 99.522 37.026C99.886 36.844 100.222 36.634 100.53 36.396L101.034 38.118C100.544 38.468 100.033 38.741 99.501 38.937C98.969 39.119 98.395 39.21 97.779 39.21ZM106.158 39.252C105.08 39.252 104.24 39 103.638 38.496C103.05 37.992 102.756 37.327 102.756 36.501C102.756 35.465 103.218 34.611 104.142 33.939C105.08 33.253 106.438 32.91 108.216 32.91C108.314 32.91 108.44 32.91 108.594 32.91C108.762 32.91 108.937 32.917 109.119 32.931C109.021 32.119 108.79 31.573 108.426 31.293C108.062 30.999 107.572 30.852 106.956 30.852C106.508 30.852 106.088 30.929 105.696 31.083C105.304 31.223 104.912 31.489 104.52 31.881L103.218 30.453C103.778 29.935 104.387 29.564 105.045 29.34C105.703 29.116 106.375 29.004 107.061 29.004C107.873 29.004 108.615 29.137 109.287 29.403C109.959 29.655 110.491 30.103 110.883 30.747C111.275 31.377 111.471 32.252 111.471 33.372V39H109.014V37.95C108.65 38.44 108.23 38.783 107.754 38.979C107.278 39.161 106.746 39.252 106.158 39.252ZM105.129 36.207C105.129 36.655 105.269 36.97 105.549 37.152C105.843 37.32 106.2 37.404 106.62 37.404C107.376 37.404 107.964 37.18 108.384 36.732C108.804 36.27 109.056 35.549 109.14 34.569C108.958 34.569 108.783 34.569 108.615 34.569C108.447 34.555 108.3 34.548 108.174 34.548C107.054 34.548 106.263 34.702 105.801 35.01C105.353 35.318 105.129 35.717 105.129 36.207ZM118.338 39.252C117.386 39.252 116.532 39.035 115.776 38.601C115.02 38.167 114.418 37.572 113.97 36.816C113.536 36.046 113.319 35.171 113.319 34.191C113.319 33.225 113.536 32.35 113.97 31.566C114.418 30.782 115.02 30.159 115.776 29.697C116.532 29.235 117.393 29.004 118.359 29.004C119.255 29.004 120.039 29.172 120.711 29.508C121.383 29.844 121.915 30.306 122.307 30.894L120.984 32.343L120.858 32.49L120.69 32.364C120.69 32.238 120.676 32.126 120.648 32.028C120.62 31.916 120.529 31.769 120.375 31.587C120.109 31.335 119.808 31.16 119.472 31.062C119.15 30.964 118.786 30.915 118.38 30.915C117.918 30.915 117.484 31.041 117.078 31.293C116.672 31.545 116.343 31.916 116.091 32.406C115.853 32.896 115.734 33.491 115.734 34.191C115.734 34.821 115.86 35.374 116.112 35.85C116.364 36.312 116.693 36.676 117.099 36.942C117.519 37.194 117.967 37.32 118.443 37.32C118.877 37.32 119.304 37.229 119.724 37.047C120.144 36.865 120.536 36.55 120.9 36.102L122.223 37.614C121.705 38.188 121.103 38.608 120.417 38.874C119.731 39.126 119.038 39.252 118.338 39.252ZM129.279 39.21C128.523 39.21 127.9 39.049 127.41 38.727C126.92 38.391 126.563 37.838 126.339 37.068C126.115 36.298 126.031 35.255 126.087 33.939L126.192 31.104H124.197L124.239 29.235H126.276L126.36 26.925L128.817 26.61L129.006 26.589L129.027 26.778C128.957 26.876 128.894 26.981 128.838 27.093C128.796 27.191 128.768 27.352 128.754 27.576L128.607 29.235H131.757L131.736 31.104H128.586L128.46 33.897C128.418 34.807 128.446 35.507 128.544 35.997C128.656 36.487 128.817 36.83 129.027 37.026C129.251 37.208 129.517 37.299 129.825 37.299C130.273 37.299 130.672 37.208 131.022 37.026C131.386 36.844 131.722 36.634 132.03 36.396L132.534 38.118C132.044 38.468 131.533 38.741 131.001 38.937C130.469 39.119 129.895 39.21 129.279 39.21ZM149.25 39.273C147.808 39.273 146.695 38.846 145.911 37.992C145.141 37.138 144.756 35.948 144.756 34.422V25.917H147.297V26.106C147.227 26.19 147.178 26.288 147.15 26.4C147.136 26.498 147.129 26.659 147.129 26.883V34.443C147.129 35.339 147.283 36.046 147.591 36.564C147.899 37.082 148.459 37.341 149.271 37.341C150.083 37.341 150.65 37.082 150.972 36.564C151.294 36.046 151.455 35.318 151.455 34.38V25.917H153.765V34.359C153.765 36.039 153.345 37.278 152.505 38.076C151.665 38.874 150.58 39.273 149.25 39.273ZM159.939 39.231C159.043 39.231 158.217 39.112 157.461 38.874C156.705 38.636 156.033 38.237 155.445 37.677L156.495 35.745L156.579 35.577L156.747 35.682C156.789 35.78 156.831 35.892 156.873 36.018C156.915 36.13 157.02 36.263 157.188 36.417C157.538 36.711 157.93 36.942 158.364 37.11C158.812 37.278 159.351 37.362 159.981 37.362C160.569 37.362 161.024 37.264 161.346 37.068C161.668 36.872 161.829 36.613 161.829 36.291C161.829 35.969 161.647 35.71 161.283 35.514C160.933 35.318 160.352 35.101 159.54 34.863C158.476 34.583 157.629 34.205 156.999 33.729C156.369 33.253 156.054 32.616 156.054 31.818C156.054 31.02 156.397 30.355 157.083 29.823C157.783 29.277 158.721 29.004 159.897 29.004C161.507 29.004 162.816 29.501 163.824 30.495L162.669 32.112L162.522 32.28L162.375 32.154C162.361 32.042 162.326 31.937 162.27 31.839C162.228 31.741 162.123 31.608 161.955 31.44C161.675 31.244 161.353 31.097 160.989 30.999C160.639 30.887 160.289 30.831 159.939 30.831C159.463 30.831 159.05 30.908 158.7 31.062C158.364 31.216 158.196 31.454 158.196 31.776C158.196 32.056 158.378 32.294 158.742 32.49C159.106 32.686 159.729 32.896 160.611 33.12C161.787 33.414 162.641 33.806 163.173 34.296C163.705 34.772 163.971 35.388 163.971 36.144C163.971 36.704 163.817 37.222 163.509 37.698C163.201 38.16 162.746 38.531 162.144 38.811C161.556 39.091 160.821 39.231 159.939 39.231Z" fill="white"/>
<defs>
<filter id="filter0_d_1_312" x="0" y="0" width="226" height="72" filterUnits="userSpaceOnUse" color-interpolation-filters="sRGB">
<feFlood flood-opacity="0" result="BackgroundImageFix"/>
<feColorMatrix in="SourceAlpha" type="matrix" values="0 0 0 0 0 0 0 0 0 0 0 0 0 0 0 0 0 0 127 0" result="hardAlpha"/>
<feOffset dy="4"/>
<feGaussianBlur stdDeviation="6"/>
<feComposite in2="hardAlpha" operator="out"/>
<feColorMatrix type="matrix" values="0 0 0 0 0 0 0 0 0 0 0 0 0 0 0 0 0 0 0.15 0"/>
<feBlend mode="normal" in2="BackgroundImageFix" result="effect1_dropShadow_1_312"/>
<feBlend mode="normal" in="SourceGraphic" in2="effect1_dropShadow_1_312" result="shape"/>
</filter>
</defs>
</svg>
