<svg width="237" height="40" viewBox="0 0 237 40" fill="none" xmlns="http://www.w3.org/2000/svg">
<g clip-path="url(#clip0_1_327)">
<path d="M11.8798 8C9.47817 8 7.07648 8.72536 5.02916 10.1756C5.68465 10.9352 6.35374 11.6921 7.00017 12.414C7.80747 11.8259 8.63522 11.4648 9.45098 11.2924L9.94806 10.7953L10.2815 10.4618L10.6134 10.7954L11.002 11.184C14.9653 11.4681 18.0764 15.9727 16.1065 20.0197L22.0715 25.9846C24.8122 21.4204 24.2153 15.4199 20.2782 11.4828C17.9571 9.16153 14.9185 8.00005 11.8799 8.00005L11.8798 8ZM2.31881 8.38699L0.457839 10.2478C2.36814 11.7496 4.49247 13.5653 6.24662 15.1227L6.61947 15.4546L6.26711 15.807L3.88238 18.1917L4.87342 19.1812L6.61005 17.4445L20.1067 30.9427L24 31.9132L22.9004 28.149L21.5424 26.791L21.5445 26.7884L15.6172 20.8612L15.6156 20.8634L9.40377 14.6508L11.271 12.7836L10.2815 11.7942L7.94238 14.1317L7.59163 14.4809L7.26127 14.1145C5.6914 12.3773 3.83617 10.2885 2.31881 8.38699ZM2.25437 12.9205C-1.11595 17.5658 -0.707468 24.0908 3.48124 28.2796C6.14559 30.944 9.75492 32.0774 13.2246 31.6837C6.60527 31.7338 0.801189 25.2122 2.79852 18.4371L2.55318 18.1917L2.8851 17.8582L3.0487 17.6946C3.40247 16.7628 3.90825 15.8313 4.58398 14.915C3.81413 14.2423 3.03756 13.5774 2.25437 12.9204V12.9205ZM8.31367 15.2375C8.93196 15.2375 9.43216 15.7392 9.43216 16.3575C9.43216 16.4694 9.41545 16.5765 9.38484 16.6784L21.3117 28.6068L20.6478 29.2707L8.76046 17.3848C8.61951 17.4461 8.4674 17.4777 8.31367 17.4775C7.69532 17.4775 7.19366 16.976 7.19366 16.3575C7.19366 15.7391 7.69532 15.2375 8.31367 15.2375V15.2375Z" fill="white"/>
</g>
<path d="M44.0625 19.25C44.8854 19.25 45.5911 19.2839 46.1797 19.3516C46.7682 19.4193 47.263 19.5208 47.6641 19.6562C48.0703 19.7865 48.3932 19.9505 48.6328 20.1484C48.8724 20.3464 49.0573 20.5729 49.1875 20.8281C49.3177 21.0781 49.401 21.3594 49.4375 21.6719C49.4792 21.9844 49.5 22.3229 49.5 22.6875C49.5 23.0521 49.4661 23.3958 49.3984 23.7188C49.3359 24.0365 49.2214 24.3281 49.0547 24.5938C48.888 24.8594 48.6615 25.0964 48.375 25.3047C48.0885 25.513 47.724 25.6901 47.2812 25.8359C46.8385 25.9818 46.3047 26.0911 45.6797 26.1641C45.0599 26.2422 44.3333 26.2812 43.5 26.2812H41.5C40.75 26.2812 40.0938 26.2526 39.5312 26.1953C38.9688 26.138 38.4844 26.0521 38.0781 25.9375C37.6719 25.8177 37.3359 25.6693 37.0703 25.4922C36.8047 25.3099 36.5911 25.099 36.4297 24.8594C36.2734 24.6146 36.1641 24.3385 36.1016 24.0312C36.0391 23.7188 36.0078 23.375 36.0078 23H37.5078C37.5078 23.4688 37.5755 23.8359 37.7109 24.1016C37.8464 24.3672 38.0703 24.5677 38.3828 24.7031C38.6953 24.8333 39.1042 24.9167 39.6094 24.9531C40.1198 24.9844 40.75 25 41.5 25H43.5C44.375 25 45.1016 24.9583 45.6797 24.875C46.2578 24.7917 46.7188 24.6589 47.0625 24.4766C47.4062 24.2943 47.6484 24.0573 47.7891 23.7656C47.9297 23.4688 48 23.1094 48 22.6875C48 22.2656 47.9505 21.9141 47.8516 21.6328C47.7578 21.3516 47.5677 21.1276 47.2812 20.9609C47 20.7943 46.6016 20.6771 46.0859 20.6094C45.5703 20.5365 44.8958 20.5 44.0625 20.5H42C41.0833 20.5 40.2969 20.4661 39.6406 20.3984C38.9896 20.3307 38.4427 20.2344 38 20.1094C37.5573 19.9792 37.2031 19.8203 36.9375 19.6328C36.6719 19.4401 36.4688 19.2214 36.3281 18.9766C36.1927 18.7318 36.1042 18.4609 36.0625 18.1641C36.0208 17.862 36 17.5365 36 17.1875C36 16.8229 36.0312 16.4844 36.0938 16.1719C36.1615 15.8594 36.2839 15.5781 36.4609 15.3281C36.638 15.0729 36.8802 14.8464 37.1875 14.6484C37.4948 14.4505 37.888 14.2865 38.3672 14.1562C38.8516 14.0208 39.4323 13.9193 40.1094 13.8516C40.7865 13.7839 41.5833 13.75 42.5 13.75L44 13.75C44.75 13.75 45.4062 13.7786 45.9688 13.8359C46.5312 13.888 47.0156 13.974 47.4219 14.0938C47.8281 14.2083 48.1641 14.3542 48.4297 14.5313C48.7005 14.7031 48.9141 14.9115 49.0703 15.1563C49.2318 15.3958 49.3438 15.6693 49.4062 15.9766C49.4688 16.2839 49.5 16.625 49.5 17H48C48 16.5312 47.9323 16.1641 47.7969 15.8984C47.6615 15.6328 47.4375 15.4349 47.125 15.3047C46.8125 15.1693 46.401 15.0859 45.8906 15.0547C45.3802 15.0182 44.75 15 44 15H42.5C41.5 15 40.6771 15.0365 40.0312 15.1094C39.3854 15.1771 38.875 15.2943 38.5 15.4609C38.125 15.6276 37.8646 15.8516 37.7188 16.1328C37.5729 16.4141 37.5 16.7656 37.5 17.1875C37.5 17.4479 37.5182 17.6797 37.5547 17.8828C37.5911 18.0859 37.6641 18.2656 37.7734 18.4219C37.888 18.5729 38.0469 18.7005 38.25 18.8047C38.4531 18.9089 38.7214 18.9948 39.0547 19.0625C39.388 19.1302 39.7943 19.1797 40.2734 19.2109C40.7578 19.237 41.3333 19.25 42 19.25H44.0625ZM64.5 14L66 14V26H64.5V20.5L53.5 20.5V26H52V14H53.5V19.25L64.5 19.25V14ZM80.75 23.25H71.25L69.75 26L68 26L75 14H77L84 26H82.25L80.75 23.25ZM80 22L76 15L72 22H80ZM94.9922 24.75C95.6536 24.75 96.2135 24.7318 96.6719 24.6953C97.1302 24.6589 97.5078 24.5859 97.8047 24.4766C98.1016 24.362 98.3307 24.1979 98.4922 23.9844C98.6536 23.7708 98.7708 23.4896 98.8438 23.1406C98.9219 22.7865 98.9661 22.3542 98.9766 21.8438C98.9922 21.3281 99 20.7135 99 20C99 19.2865 98.9922 18.6745 98.9766 18.1641C98.9661 17.6484 98.9219 17.2161 98.8438 16.8672C98.7708 16.513 98.6536 16.2292 98.4922 16.0156C98.3307 15.8021 98.1016 15.6406 97.8047 15.5313C97.5078 15.4167 97.1302 15.3411 96.6719 15.3047C96.2188 15.2682 95.6589 15.25 94.9922 15.25H87.5V24.75L94.9922 24.75ZM86 26V14L94.9922 14C95.9089 14 96.6797 14.0547 97.3047 14.1641C97.9349 14.2682 98.4531 14.4297 98.8594 14.6484C99.2708 14.8672 99.5859 15.1406 99.8047 15.4688C100.029 15.7969 100.19 16.1849 100.289 16.6328C100.393 17.0755 100.453 17.5781 100.469 18.1406C100.49 18.6979 100.5 19.3177 100.5 20C100.5 20.6823 100.49 21.3047 100.469 21.8672C100.453 22.4245 100.393 22.9271 100.289 23.375C100.19 23.8177 100.029 24.2031 99.8047 24.5313C99.5859 24.8594 99.2708 25.1328 98.8594 25.3516C98.4531 25.5703 97.9349 25.7344 97.3047 25.8438C96.6797 25.9479 95.9089 26 94.9922 26L86 26ZM112.508 13.75C113.424 13.75 114.195 13.8073 114.82 13.9219C115.451 14.0313 115.969 14.2005 116.375 14.4297C116.781 14.6536 117.094 14.9375 117.312 15.2813C117.531 15.625 117.69 16.0286 117.789 16.4922C117.893 16.9557 117.953 17.4792 117.969 18.0625C117.99 18.6458 118 19.2917 118 20C118 20.7083 117.99 21.3542 117.969 21.9375C117.953 22.5208 117.893 23.0443 117.789 23.5078C117.69 23.9714 117.531 24.375 117.312 24.7188C117.094 25.0625 116.781 25.349 116.375 25.5781C115.969 25.8021 115.451 25.9688 114.82 26.0781C114.195 26.1927 113.424 26.25 112.508 26.25L107.992 26.25C107.076 26.25 106.302 26.1927 105.672 26.0781C105.047 25.9688 104.531 25.8021 104.125 25.5781C103.719 25.349 103.404 25.0625 103.18 24.7188C102.961 24.375 102.799 23.9714 102.695 23.5078C102.596 23.0443 102.539 22.5208 102.523 21.9375C102.508 21.3542 102.5 20.7083 102.5 20C102.5 19.2917 102.508 18.6458 102.523 18.0625C102.539 17.4792 102.596 16.9557 102.695 16.4922C102.799 16.0286 102.961 15.625 103.18 15.2813C103.404 14.9375 103.719 14.6536 104.125 14.4297C104.531 14.2005 105.047 14.0313 105.672 13.9219C106.302 13.8073 107.076 13.75 107.992 13.75L112.508 13.75ZM112.508 25C113.169 25 113.727 24.9818 114.18 24.9453C114.638 24.9036 115.016 24.8229 115.312 24.7031C115.609 24.5833 115.839 24.4115 116 24.1875C116.161 23.9635 116.279 23.6667 116.352 23.2969C116.424 22.9271 116.466 22.474 116.477 21.9375C116.492 21.3958 116.5 20.75 116.5 20C116.5 19.25 116.492 18.6068 116.477 18.0703C116.466 17.5286 116.424 17.0729 116.352 16.7031C116.279 16.3333 116.161 16.0365 116 15.8125C115.839 15.5885 115.609 15.4167 115.312 15.2969C115.021 15.1771 114.646 15.099 114.188 15.0625C113.734 15.0208 113.174 15 112.508 15H107.992C107.326 15 106.763 15.0208 106.305 15.0625C105.852 15.099 105.477 15.1771 105.18 15.2969C104.883 15.4167 104.654 15.5885 104.492 15.8125C104.331 16.0365 104.214 16.3333 104.141 16.7031C104.068 17.0729 104.026 17.5286 104.016 18.0703C104.005 18.6068 104 19.25 104 20C104 20.75 104.005 21.3958 104.016 21.9375C104.031 22.474 104.076 22.9271 104.148 23.2969C104.221 23.6667 104.336 23.9635 104.492 24.1875C104.654 24.4115 104.883 24.5833 105.18 24.7031C105.477 24.8229 105.852 24.9036 106.305 24.9453C106.763 24.9818 107.326 25 107.992 25L112.508 25ZM131.375 14L133.125 14L138 24.75L142.75 14H144.5L139 26H137L132.25 15.5L127.5 26H125.5L119.5 14H121.25L126.5 24.75L131.375 14ZM146.5 26V14L158 14V15.25L148 15.25V19.25L157.5 19.25V20.5L148 20.5V26H146.5ZM171.75 23.25H162.25L160.75 26H159L166 14H168L175 26H173.25L171.75 23.25ZM171 22L167 15L163 22H171ZM177 26V14H178.5V24.75L188 24.75V26L177 26ZM190 26V14H191.5V24.75L201 24.75V26L190 26Z" fill="white"/>
<defs>
<clipPath id="clip0_1_327">
<rect width="24" height="24" fill="white" transform="translate(0 8)"/>
</clipPath>
</defs>
</svg>
