<svg width="247" height="56" viewBox="0 0 247 56" fill="none" xmlns="http://www.w3.org/2000/svg">
<rect x="0.5" width="246" height="56" fill="#3040D3"/>
<path d="M28.4375 22.5625V37H26.4688V21.25H29.75L38.9272 35.0312L48.1045 21.25H51.2422V37H49.2734V22.7778L39.9219 37H37.9326L28.4375 22.5625ZM54.1953 31.0117C54.1953 29.8018 54.3252 28.8003 54.585 28.0073C54.8447 27.2144 55.2617 26.5854 55.8359 26.1206C56.4102 25.6558 57.1553 25.3311 58.0713 25.1465C58.9873 24.9551 60.1016 24.8594 61.4141 24.8594C62.7266 24.8594 63.8408 24.9551 64.7568 25.1465C65.6729 25.3311 66.418 25.6558 66.9922 26.1206C67.5664 26.5854 67.9834 27.2144 68.2432 28.0073C68.5029 28.8003 68.6328 29.8018 68.6328 31.0117C68.6328 32.2217 68.5029 33.2266 68.2432 34.0264C67.9834 34.8262 67.5664 35.4619 66.9922 35.9336C66.418 36.4053 65.6729 36.7402 64.7568 36.9385C63.8408 37.1299 62.7266 37.2256 61.4141 37.2256C60.1016 37.2256 58.9873 37.1299 58.0713 36.9385C57.1553 36.7402 56.4102 36.4053 55.8359 35.9336C55.2617 35.4619 54.8447 34.8262 54.585 34.0264C54.3252 33.2266 54.1953 32.2217 54.1953 31.0117ZM56.1641 31.0117C56.1641 31.668 56.188 32.2388 56.2358 32.7241C56.2837 33.2095 56.3726 33.6265 56.5024 33.9751C56.6392 34.3237 56.8271 34.6074 57.0664 34.8262C57.3057 35.0449 57.6201 35.2192 58.0098 35.3491C58.3994 35.479 58.8711 35.5679 59.4248 35.6157C59.9854 35.6636 60.6484 35.6875 61.4141 35.6875C62.0703 35.6875 62.6548 35.6738 63.1675 35.6465C63.687 35.6123 64.1382 35.5405 64.521 35.4312C64.9106 35.3218 65.2422 35.168 65.5156 34.9697C65.7891 34.7646 66.0078 34.4878 66.1719 34.1392C66.3428 33.7905 66.4658 33.3633 66.541 32.8574C66.623 32.3447 66.6641 31.7295 66.6641 31.0117C66.6641 30.3076 66.623 29.7095 66.541 29.2173C66.4658 28.7183 66.3428 28.3013 66.1719 27.9663C66.0078 27.6313 65.7891 27.3682 65.5156 27.1768C65.2422 26.9785 64.9106 26.8315 64.521 26.7358C64.1382 26.6333 63.687 26.5684 63.1675 26.541C62.6548 26.5137 62.0703 26.5 61.4141 26.5C60.7578 26.5 60.1699 26.5137 59.6504 26.541C59.1377 26.5684 58.6865 26.6333 58.2969 26.7358C57.9141 26.8315 57.5859 26.9785 57.3125 27.1768C57.0391 27.3682 56.8169 27.6313 56.646 27.9663C56.4819 28.3013 56.3589 28.7183 56.2769 29.2173C56.2017 29.7095 56.1641 30.3076 56.1641 31.0117ZM82.7422 37V30.4375C82.7422 29.7061 82.6875 29.0908 82.5781 28.5918C82.4688 28.0859 82.25 27.6792 81.9219 27.3716C81.5938 27.064 81.1289 26.8418 80.5273 26.7051C79.9258 26.5684 79.1328 26.5 78.1484 26.5C77.082 26.5 76.207 26.5786 75.5234 26.7358C74.8467 26.8931 74.3135 27.1152 73.9238 27.4023C73.5342 27.6895 73.2642 28.0347 73.1138 28.438C72.9702 28.8413 72.8984 29.2891 72.8984 29.7812V37H70.9297V25.1875H72.8984V27.1562C73.042 26.8213 73.2471 26.5342 73.5137 26.2949C73.7803 26.0488 74.0811 25.8403 74.416 25.6694C74.751 25.4985 75.1133 25.3618 75.5029 25.2593C75.8926 25.1499 76.2822 25.0679 76.6719 25.0132C77.0615 24.9517 77.4375 24.9106 77.7998 24.8901C78.1689 24.8696 78.5039 24.8594 78.8047 24.8594C79.6797 24.8594 80.4316 24.9141 81.0605 25.0234C81.6963 25.1328 82.2329 25.2935 82.6704 25.5054C83.1147 25.7173 83.4702 25.9805 83.7368 26.2949C84.0034 26.6094 84.2085 26.9751 84.3521 27.3921C84.5024 27.8022 84.6016 28.2637 84.6494 28.7764C84.6973 29.2822 84.7212 29.8359 84.7212 30.4375L84.7109 37H82.7422ZM98.8408 31.75C98.8408 32.7549 98.7588 33.5957 98.5947 34.2725C98.4307 34.9424 98.1538 35.479 97.7642 35.8823C97.3813 36.2856 96.8755 36.5728 96.2466 36.7437C95.6177 36.9146 94.8418 37 93.9189 37C93.0234 37 92.2715 36.9316 91.6631 36.7949C91.0547 36.6582 90.5625 36.4258 90.1865 36.0977C89.8105 35.7695 89.5405 35.332 89.3765 34.7852C89.2124 34.2383 89.1304 33.5547 89.1304 32.7344V26.8076H86.7002V25.1875H89.1304V21.9575H91.0991V25.1875H98.5127V26.8076H91.0991V32.7344C91.0991 33.3906 91.147 33.8965 91.2427 34.252C91.3452 34.6074 91.5059 34.8672 91.7246 35.0312C91.9434 35.1953 92.2305 35.291 92.5859 35.3184C92.9482 35.3457 93.3892 35.3594 93.9087 35.3594C94.3188 35.3594 94.6846 35.3525 95.0059 35.3389C95.334 35.3252 95.6177 35.2842 95.8569 35.2158C96.103 35.1406 96.3115 35.0312 96.4824 34.8877C96.6533 34.7373 96.79 34.5288 96.8926 34.2622C97.002 33.9956 97.0806 33.6606 97.1284 33.2573C97.1763 32.8472 97.2002 32.3447 97.2002 31.75H98.8408ZM113.278 37V30.335C113.278 29.624 113.224 29.0259 113.114 28.5405C113.005 28.0483 112.786 27.6519 112.458 27.3511C112.13 27.0503 111.665 26.835 111.063 26.7051C110.462 26.5684 109.669 26.5 108.685 26.5C107.618 26.5 106.743 26.5786 106.06 26.7358C105.383 26.8862 104.85 27.1016 104.46 27.3818C104.07 27.6553 103.8 27.9868 103.65 28.3765C103.506 28.7661 103.435 29.2002 103.435 29.6787V37H101.466V21.25H103.435V27.0537C103.571 26.7324 103.766 26.4556 104.019 26.2231C104.272 25.9907 104.562 25.7925 104.891 25.6284C105.226 25.4644 105.584 25.3345 105.967 25.2388C106.35 25.1362 106.736 25.0576 107.126 25.0029C107.522 24.9482 107.909 24.9106 108.285 24.8901C108.667 24.8696 109.02 24.8594 109.341 24.8594C110.216 24.8594 110.968 24.9141 111.597 25.0234C112.232 25.126 112.769 25.2832 113.207 25.4951C113.651 25.7002 114.006 25.9565 114.273 26.2642C114.54 26.5718 114.745 26.9307 114.888 27.3408C115.039 27.7441 115.138 28.1987 115.186 28.7046C115.233 29.2036 115.257 29.7471 115.257 30.335L115.247 37H113.278ZM118.549 21.25H120.518V37H118.549V21.25ZM129.377 37L123.143 25.1875H125.439L130.689 35.6875L135.611 25.1875H137.908L132.002 37L131.674 37.6562C131.51 37.9844 131.346 38.292 131.182 38.5791C131.024 38.873 130.843 39.1396 130.638 39.3789C130.433 39.625 130.19 39.8438 129.91 40.0352C129.63 40.2266 129.285 40.3872 128.875 40.5171C128.471 40.6538 127.989 40.7563 127.429 40.8247C126.868 40.8999 126.205 40.9375 125.439 40.9375V39.2969C126.096 39.2969 126.649 39.2695 127.101 39.2148C127.552 39.167 127.928 39.0918 128.229 38.9893C128.536 38.8936 128.782 38.7773 128.967 38.6406C129.151 38.5039 129.305 38.3501 129.428 38.1792C129.551 38.0083 129.654 37.8237 129.736 37.6255C129.825 37.4272 129.924 37.2188 130.033 37H129.377ZM145.127 37V21.25H158.262C159.247 21.25 160.04 21.332 160.641 21.4961C161.243 21.6533 161.704 21.8892 162.025 22.2036C162.354 22.5112 162.572 22.8975 162.682 23.3623C162.791 23.8271 162.846 24.3604 162.846 24.9619C162.846 25.3994 162.808 25.7856 162.733 26.1206C162.658 26.4556 162.559 26.7461 162.436 26.9922C162.312 27.2383 162.172 27.4468 162.015 27.6177C161.858 27.7817 161.697 27.9185 161.533 28.0278C161.15 28.2876 160.713 28.4346 160.221 28.4688C160.836 28.5029 161.383 28.6533 161.861 28.9199C162.066 29.0361 162.265 29.1831 162.456 29.3608C162.654 29.5317 162.829 29.7471 162.979 30.0068C163.136 30.2598 163.263 30.5605 163.358 30.9092C163.454 31.251 163.502 31.6475 163.502 32.0986C163.502 32.6455 163.475 33.1479 163.42 33.606C163.372 34.0571 163.27 34.4639 163.112 34.8262C162.955 35.1885 162.729 35.5063 162.436 35.7798C162.142 36.0532 161.749 36.2822 161.256 36.4668C160.771 36.6445 160.173 36.7778 159.462 36.8667C158.758 36.9556 157.914 37 156.929 37H145.127ZM156.273 35.3594C157.039 35.3594 157.702 35.3491 158.262 35.3286C158.823 35.3013 159.298 35.25 159.688 35.1748C160.077 35.0928 160.392 34.98 160.631 34.8364C160.87 34.686 161.055 34.4912 161.185 34.252C161.321 34.0059 161.414 33.7085 161.461 33.3599C161.509 33.0112 161.533 32.5908 161.533 32.0986C161.533 31.7158 161.509 31.3843 161.461 31.104C161.414 30.8169 161.321 30.5776 161.185 30.3862C161.055 30.188 160.87 30.0308 160.631 29.9146C160.392 29.7915 160.077 29.6958 159.688 29.6274C159.298 29.5591 158.823 29.5146 158.262 29.4941C157.702 29.4668 157.039 29.4531 156.273 29.4531H147.096V35.3594H156.273ZM156.273 27.8125C156.943 27.8125 157.521 27.7988 158.006 27.7715C158.491 27.7441 158.905 27.6929 159.247 27.6177C159.588 27.5425 159.865 27.4399 160.077 27.3101C160.289 27.1733 160.453 26.999 160.569 26.7871C160.692 26.5752 160.774 26.3223 160.815 26.0283C160.856 25.7275 160.877 25.3721 160.877 24.9619C160.877 24.5244 160.829 24.1689 160.733 23.8955C160.638 23.6221 160.467 23.4136 160.221 23.27C159.975 23.1196 159.64 23.0205 159.216 22.9727C158.799 22.918 158.262 22.8906 157.606 22.8906H147.096V27.8125H156.273ZM166.783 25.1875H168.752V37H166.783V25.1875ZM168.752 23.2188H166.783V21.25H168.752V23.2188ZM172.689 21.25H174.658V37H172.689V21.25ZM178.596 21.25H180.564V37H178.596V21.25ZM184.502 25.1875H186.471V37H184.502V25.1875ZM186.471 23.2188H184.502V21.25H186.471V23.2188ZM201.564 37V30.4375C201.564 29.7061 201.51 29.0908 201.4 28.5918C201.291 28.0859 201.072 27.6792 200.744 27.3716C200.416 27.064 199.951 26.8418 199.35 26.7051C198.748 26.5684 197.955 26.5 196.971 26.5C195.904 26.5 195.029 26.5786 194.346 26.7358C193.669 26.8931 193.136 27.1152 192.746 27.4023C192.356 27.6895 192.086 28.0347 191.936 28.438C191.792 28.8413 191.721 29.2891 191.721 29.7812V37H189.752V25.1875H191.721V27.1562C191.864 26.8213 192.069 26.5342 192.336 26.2949C192.603 26.0488 192.903 25.8403 193.238 25.6694C193.573 25.4985 193.936 25.3618 194.325 25.2593C194.715 25.1499 195.104 25.0679 195.494 25.0132C195.884 24.9517 196.26 24.9106 196.622 24.8901C196.991 24.8696 197.326 24.8594 197.627 24.8594C198.502 24.8594 199.254 24.9141 199.883 25.0234C200.519 25.1328 201.055 25.2935 201.493 25.5054C201.937 25.7173 202.292 25.9805 202.559 26.2949C202.826 26.6094 203.031 26.9751 203.174 27.3921C203.325 27.8022 203.424 28.2637 203.472 28.7764C203.52 29.2822 203.543 29.8359 203.543 30.4375L203.533 37H201.564ZM213.069 26.5C212.304 26.5 211.641 26.5239 211.08 26.5718C210.526 26.6196 210.055 26.7051 209.665 26.8281C209.275 26.9512 208.958 27.1221 208.711 27.3408C208.472 27.5596 208.284 27.8398 208.147 28.1816C208.018 28.5234 207.929 28.937 207.881 29.4224C207.84 29.9009 207.819 30.4648 207.819 31.1143C207.819 31.7568 207.84 32.3174 207.881 32.7959C207.929 33.2676 208.018 33.6743 208.147 34.0161C208.284 34.3511 208.472 34.6279 208.711 34.8467C208.958 35.0654 209.275 35.2363 209.665 35.3594C210.055 35.4824 210.526 35.5679 211.08 35.6157C211.641 35.6636 212.304 35.6875 213.069 35.6875C213.726 35.6875 214.31 35.6738 214.823 35.6465C215.335 35.6123 215.787 35.5439 216.176 35.4414C216.566 35.332 216.894 35.1782 217.161 34.98C217.434 34.7749 217.656 34.5049 217.827 34.1699C217.998 33.8281 218.121 33.4077 218.196 32.9087C218.278 32.4028 218.319 31.7944 218.319 31.0835C218.319 30.3726 218.278 29.7642 218.196 29.2583C218.121 28.7524 217.998 28.332 217.827 27.9971C217.656 27.6553 217.434 27.3853 217.161 27.187C216.894 26.9888 216.566 26.8384 216.176 26.7358C215.787 26.6333 215.335 26.5684 214.823 26.541C214.31 26.5137 213.726 26.5 213.069 26.5ZM220.288 35.3594C220.288 36.5078 220.158 37.4614 219.898 38.2202C219.639 38.979 219.222 39.5908 218.647 40.0557C218.073 40.5273 217.328 40.8555 216.412 41.04C215.496 41.2246 214.382 41.3169 213.069 41.3169C211.839 41.3169 210.803 41.2622 209.962 41.1528C209.128 41.0435 208.455 40.8691 207.942 40.6299C207.43 40.3975 207.061 40.0933 206.835 39.7173C206.616 39.3481 206.507 38.897 206.507 38.3638H208.476C208.476 38.6304 208.544 38.8491 208.681 39.02C208.824 39.1909 209.07 39.3242 209.419 39.4199C209.768 39.5156 210.236 39.5806 210.824 39.6147C211.418 39.6558 212.167 39.6763 213.069 39.6763C214.054 39.6763 214.881 39.6387 215.551 39.5635C216.221 39.4951 216.761 39.3276 217.171 39.061C217.581 38.7944 217.875 38.3911 218.053 37.8511C218.23 37.311 218.319 36.5898 218.319 35.6875C218.224 35.8516 218.07 36.0293 217.858 36.2207C217.653 36.4121 217.349 36.5898 216.945 36.7539C216.549 36.918 216.036 37.0547 215.407 37.1641C214.778 37.2734 213.999 37.3281 213.069 37.3281C211.757 37.3281 210.643 37.229 209.727 37.0308C208.811 36.8394 208.065 36.5078 207.491 36.0361C206.917 35.5645 206.5 34.9287 206.24 34.1289C205.98 33.3291 205.851 32.3242 205.851 31.1143C205.851 29.8838 205.98 28.8652 206.24 28.0586C206.5 27.252 206.917 26.6128 207.491 26.1411C208.065 25.6694 208.811 25.3379 209.727 25.1465C210.643 24.9551 211.757 24.8594 213.069 24.8594C213.999 24.8594 214.778 24.9072 215.407 25.0029C216.036 25.0986 216.549 25.2183 216.945 25.3618C217.349 25.5054 217.653 25.6626 217.858 25.8335C218.07 25.9976 218.224 26.1479 218.319 26.2847V25.1875H220.288V35.3594Z" fill="white"/>
</svg>
