<svg width="201" height="24" viewBox="0 0 201 24" fill="none" xmlns="http://www.w3.org/2000/svg">
<path d="M11.8798 0C9.47817 0 7.07648 0.725359 5.02916 2.17557C5.68465 2.93516 6.35374 3.69208 7.00017 4.41397C7.80747 3.82593 8.63522 3.46476 9.45098 3.29236L10.2815 2.46184L10.6134 2.79538L11.002 3.18398C14.9653 3.46808 18.0764 7.97271 16.1065 12.0197L22.0715 17.9846C24.8122 13.4204 24.2153 7.41986 20.2782 3.48278C17.9571 1.16153 14.9184 0 11.8798 0ZM2.31881 0.386992L0.457839 2.24781C2.36814 3.74957 4.49247 5.56533 6.24662 7.12272L6.61947 7.45464L3.88238 10.1917L4.87342 11.1812L6.61005 9.44452L20.1067 22.9427L24 23.9132L22.9004 20.149L21.5424 18.791L21.5445 18.7884L15.6172 12.8612L15.6156 12.8634L9.40377 6.6508L11.271 4.7836L10.2815 3.79417L7.94238 6.13173L7.59163 6.48092L7.26127 6.11446C5.6914 4.37727 3.83617 2.28848 2.31881 0.386992ZM2.25437 4.92046C-1.11595 9.56583 -0.707468 16.0908 3.48124 20.2796C6.14559 22.944 9.75492 24.0774 13.2246 23.6837C6.60527 23.7338 0.801189 17.2122 2.79852 10.4371L2.55318 10.1917L2.8851 9.85819L3.0487 9.69459C3.40247 8.76275 3.90825 7.83126 4.58398 6.91497C3.81413 6.24233 3.03756 5.57753 2.25437 4.92046ZM8.31367 7.23748C8.93196 7.23748 9.43216 7.73925 9.43216 8.35749C9.43216 8.46944 9.41545 8.57645 9.38484 8.67844L21.3117 20.6068L20.6478 21.2707L8.76046 9.38477C8.61951 9.44615 8.4674 9.47773 8.31367 9.47754C7.69532 9.47754 7.19366 8.97598 7.19366 8.35754C7.19366 7.73914 7.69532 7.23748 8.31367 7.23748Z" fill="black"/>
<path d="M44.0625 11.25C44.8854 11.25 45.5911 11.2839 46.1797 11.3516C46.7682 11.4193 47.263 11.5208 47.6641 11.6562C48.0703 11.7865 48.3932 11.9505 48.6328 12.1484C48.8724 12.3464 49.0573 12.5729 49.1875 12.8281C49.3177 13.0781 49.401 13.3594 49.4375 13.6719C49.4792 13.9844 49.5 14.3229 49.5 14.6875C49.5 15.0521 49.4661 15.3958 49.3984 15.7188C49.3359 16.0365 49.2214 16.3281 49.0547 16.5938C48.888 16.8594 48.6615 17.0964 48.375 17.3047C48.0885 17.513 47.724 17.6901 47.2812 17.8359C46.8385 17.9818 46.3047 18.0911 45.6797 18.1641C45.0599 18.2422 44.3333 18.2812 43.5 18.2812H41.5C40.75 18.2812 40.0938 18.2526 39.5312 18.1953C38.9688 18.138 38.4844 18.0521 38.0781 17.9375C37.6719 17.8177 37.3359 17.6693 37.0703 17.4922C36.8047 17.3099 36.5911 17.099 36.4297 16.8594C36.2734 16.6146 36.1641 16.3385 36.1016 16.0312C36.0391 15.7188 36.0078 15.375 36.0078 15H37.5078C37.5078 15.4688 37.5755 15.8359 37.7109 16.1016C37.8464 16.3672 38.0703 16.5677 38.3828 16.7031C38.6953 16.8333 39.1042 16.9167 39.6094 16.9531C40.1198 16.9844 40.75 17 41.5 17H43.5C44.375 17 45.1016 16.9583 45.6797 16.875C46.2578 16.7917 46.7188 16.6589 47.0625 16.4766C47.4062 16.2943 47.6484 16.0573 47.7891 15.7656C47.9297 15.4688 48 15.1094 48 14.6875C48 14.2656 47.9505 13.9141 47.8516 13.6328C47.7578 13.3516 47.5677 13.1276 47.2812 12.9609C47 12.7943 46.6016 12.6771 46.0859 12.6094C45.5703 12.5365 44.8958 12.5 44.0625 12.5H42C41.0833 12.5 40.2969 12.4661 39.6406 12.3984C38.9896 12.3307 38.4427 12.2344 38 12.1094C37.5573 11.9792 37.2031 11.8203 36.9375 11.6328C36.6719 11.4401 36.4688 11.2214 36.3281 10.9766C36.1927 10.7318 36.1042 10.4609 36.0625 10.1641C36.0208 9.86198 36 9.53646 36 9.1875C36 8.82292 36.0312 8.48438 36.0938 8.17188C36.1615 7.85938 36.2839 7.57812 36.4609 7.32812C36.638 7.07292 36.8802 6.84635 37.1875 6.64844C37.4948 6.45052 37.888 6.28646 38.3672 6.15625C38.8516 6.02083 39.4323 5.91927 40.1094 5.85156C40.7865 5.78385 41.5833 5.75 42.5 5.75H44C44.75 5.75 45.4062 5.77865 45.9688 5.83594C46.5312 5.88802 47.0156 5.97396 47.4219 6.09375C47.8281 6.20833 48.1641 6.35417 48.4297 6.53125C48.7005 6.70312 48.9141 6.91146 49.0703 7.15625C49.2318 7.39583 49.3438 7.66927 49.4062 7.97656C49.4688 8.28385 49.5 8.625 49.5 9H48C48 8.53125 47.9323 8.16406 47.7969 7.89844C47.6615 7.63281 47.4375 7.4349 47.125 7.30469C46.8125 7.16927 46.401 7.08594 45.8906 7.05469C45.3802 7.01823 44.75 7 44 7H42.5C41.5 7 40.6771 7.03646 40.0312 7.10938C39.3854 7.17708 38.875 7.29427 38.5 7.46094C38.125 7.6276 37.8646 7.85156 37.7188 8.13281C37.5729 8.41406 37.5 8.76562 37.5 9.1875C37.5 9.44792 37.5182 9.67969 37.5547 9.88281C37.5911 10.0859 37.6641 10.2656 37.7734 10.4219C37.888 10.5729 38.0469 10.7005 38.25 10.8047C38.4531 10.9089 38.7214 10.9948 39.0547 11.0625C39.388 11.1302 39.7943 11.1797 40.2734 11.2109C40.7578 11.237 41.3333 11.25 42 11.25H44.0625Z" fill="black"/>
<path d="M64.5 6H66V18H64.5V12.5H53.5V18H52V6H53.5V11.25H64.5V6Z" fill="black"/>
<path d="M80.75 15.25H71.25L69.75 18H68L75 6H77L84 18H82.25L80.75 15.25ZM80 14L76 7L72 14H80Z" fill="black"/>
<path d="M94.9922 16.75C95.6536 16.75 96.2135 16.7318 96.6719 16.6953C97.1302 16.6589 97.5078 16.5859 97.8047 16.4766C98.1016 16.362 98.3307 16.1979 98.4922 15.9844C98.6536 15.7708 98.7708 15.4896 98.8438 15.1406C98.9219 14.7865 98.9661 14.3542 98.9766 13.8438C98.9922 13.3281 99 12.7135 99 12C99 11.2865 98.9922 10.6745 98.9766 10.1641C98.9661 9.64844 98.9219 9.21615 98.8438 8.86719C98.7708 8.51302 98.6536 8.22917 98.4922 8.01562C98.3307 7.80208 98.1016 7.64062 97.8047 7.53125C97.5078 7.41667 97.1302 7.34115 96.6719 7.30469C96.2188 7.26823 95.6589 7.25 94.9922 7.25H87.5V16.75H94.9922ZM86 18V6H94.9922C95.9089 6 96.6797 6.05469 97.3047 6.16406C97.9349 6.26823 98.4531 6.42969 98.8594 6.64844C99.2708 6.86719 99.5859 7.14062 99.8047 7.46875C100.029 7.79688 100.19 8.1849 100.289 8.63281C100.393 9.07552 100.453 9.57812 100.469 10.1406C100.49 10.6979 100.5 11.3177 100.5 12C100.5 12.6823 100.49 13.3047 100.469 13.8672C100.453 14.4245 100.393 14.9271 100.289 15.375C100.19 15.8177 100.029 16.2031 99.8047 16.5312C99.5859 16.8594 99.2708 17.1328 98.8594 17.3516C98.4531 17.5703 97.9349 17.7344 97.3047 17.8438C96.6797 17.9479 95.9089 18 94.9922 18H86Z" fill="black"/>
<path d="M112.508 5.75C113.424 5.75 114.195 5.80729 114.82 5.92188C115.451 6.03125 115.969 6.20052 116.375 6.42969C116.781 6.65365 117.094 6.9375 117.312 7.28125C117.531 7.625 117.69 8.02865 117.789 8.49219C117.893 8.95573 117.953 9.47917 117.969 10.0625C117.99 10.6458 118 11.2917 118 12C118 12.7083 117.99 13.3542 117.969 13.9375C117.953 14.5208 117.893 15.0443 117.789 15.5078C117.69 15.9714 117.531 16.375 117.312 16.7188C117.094 17.0625 116.781 17.349 116.375 17.5781C115.969 17.8021 115.451 17.9688 114.82 18.0781C114.195 18.1927 113.424 18.25 112.508 18.25H107.992C107.076 18.25 106.302 18.1927 105.672 18.0781C105.047 17.9688 104.531 17.8021 104.125 17.5781C103.719 17.349 103.404 17.0625 103.18 16.7188C102.961 16.375 102.799 15.9714 102.695 15.5078C102.596 15.0443 102.539 14.5208 102.523 13.9375C102.508 13.3542 102.5 12.7083 102.5 12C102.5 11.2917 102.508 10.6458 102.523 10.0625C102.539 9.47917 102.596 8.95573 102.695 8.49219C102.799 8.02865 102.961 7.625 103.18 7.28125C103.404 6.9375 103.719 6.65365 104.125 6.42969C104.531 6.20052 105.047 6.03125 105.672 5.92188C106.302 5.80729 107.076 5.75 107.992 5.75H112.508ZM112.508 17C113.169 17 113.727 16.9818 114.18 16.9453C114.638 16.9036 115.016 16.8229 115.312 16.7031C115.609 16.5833 115.839 16.4115 116 16.1875C116.161 15.9635 116.279 15.6667 116.352 15.2969C116.424 14.9271 116.466 14.474 116.477 13.9375C116.492 13.3958 116.5 12.75 116.5 12C116.5 11.25 116.492 10.6068 116.477 10.0703C116.466 9.52865 116.424 9.07292 116.352 8.70312C116.279 8.33333 116.161 8.03646 116 7.8125C115.839 7.58854 115.609 7.41667 115.312 7.29688C115.021 7.17708 114.646 7.09896 114.188 7.0625C113.734 7.02083 113.174 7 112.508 7H107.992C107.326 7 106.763 7.02083 106.305 7.0625C105.852 7.09896 105.477 7.17708 105.18 7.29688C104.883 7.41667 104.654 7.58854 104.492 7.8125C104.331 8.03646 104.214 8.33333 104.141 8.70312C104.068 9.07292 104.026 9.52865 104.016 10.0703C104.005 10.6068 104 11.25 104 12C104 12.75 104.005 13.3958 104.016 13.9375C104.031 14.474 104.076 14.9271 104.148 15.2969C104.221 15.6667 104.336 15.9635 104.492 16.1875C104.654 16.4115 104.883 16.5833 105.18 16.7031C105.477 16.8229 105.852 16.9036 106.305 16.9453C106.763 16.9818 107.326 17 107.992 17H112.508Z" fill="black"/>
<path d="M131.375 6H133.125L138 16.75L142.75 6H144.5L139 18H137L132.25 7.5L127.5 18H125.5L119.5 6H121.25L126.5 16.75L131.375 6Z" fill="black"/>
<path d="M146.5 18V6H158V7.25H148V11.25H157.5V12.5H148V18H146.5Z" fill="black"/>
<path d="M171.75 15.25H162.25L160.75 18H159L166 6H168L175 18H173.25L171.75 15.25ZM171 14L167 7L163 14H171Z" fill="black"/>
<path d="M177 18V6H178.5V16.75H188V18H177Z" fill="black"/>
<path d="M190 18V6H191.5V16.75H201V18H190Z" fill="black"/>
</svg>
